<svg width="24" height="24" viewBox="0 0 24 24" fill="none" xmlns="http://www.w3.org/2000/svg">
  <path d="M11 7C11.9569 7.16228 12.84 7.80991 13.0019 8.98743" stroke="currentColor" stroke-width="2"
    stroke-linecap="square" />
  <path
    d="M5.07202 8.48638C5.07202 5.44176 7.67323 2.88086 11 2.88086C14.3268 2.88086 16.928 5.44176 16.928 8.48638C16.9088 10.7156 16.1628 12.8776 14.8034 14.6444C13.5277 16.2995 12.0552 17.1081 11 17.1081C9.94247 17.1081 8.47233 16.2995 7.19662 14.6491C5.95648 13.0415 5.07202 10.841 5.07202 8.48638Z"
    stroke="currentColor" stroke-width="2" stroke-linecap="square" />
  <path
    d="M10.9913 18.0391V18.5856C10.9913 19.7874 11.778 20.6222 13.1104 20.6222C13.6681 20.6222 14.7914 20.6222 15.1554 20.6222C16.4051 20.6222 16.9835 21.4866 16.9835 22.5244V22.9789"
    stroke="currentColor" stroke-width="2" stroke-linecap="square" />
</svg>
