<svg xmlns="http://www.w3.org/2000/svg" width="252" height="70" fill="none" viewBox="0 0 252 70">
  <g clip-path="url(#a)">
    <path fill="#fff"
      d="M149.5 68v-8.7h1.3V68h-1.3Zm.7-10.1a1 1 0 0 1-.7-.3l-.3-.6c0-.2.1-.5.3-.6.2-.2.4-.3.7-.3.3 0 .5.1.7.3l.3.6c0 .2-.1.5-.3.6l-.7.3Zm4.4 4.9V68h-1.3v-8.7h1.3v1.4h.1c.2-.4.5-.8.9-1.1.4-.3 1-.4 1.6-.4a3 3 0 0 1 1.6.4c.4.2.8.6 1 1.1.2.5.4 1.1.4 1.8V68h-1.3v-5.5c0-.7-.2-1.2-.5-1.6-.4-.4-.8-.6-1.5-.6a2 2 0 0 0-1.1.3 3 3 0 0 0-.8.8c-.3.5-.4.9-.4 1.4Zm13.2 5.2h-1.5l4.3-11.6h1.5l4.3 11.6h-1.5l-3.5-9.8h-.1l-3.5 9.8Zm.5-4.5h6v1.2h-6v-1.2Zm9.6 4.5v-8.7h1.3v1.4h.1a2.4 2.4 0 0 1 2.4-1.5c.6 0 1.1.1 1.4.4.4.3.7.6.9 1.1h.1a2.7 2.7 0 0 1 2.6-1.5c.8 0 1.4.2 1.9.7.5.5.7 1.2.7 2.3V68H188v-5.8a2 2 0 0 0-.5-1.4 2 2 0 0 0-1.2-.4c-.6 0-1.1.2-1.4.6-.3.4-.5.8-.5 1.4v5.7H183v-6c0-.5-.2-.9-.5-1.2-.3-.3-.7-.5-1.2-.5a2 2 0 0 0-1.7 1.1 2 2 0 0 0-.3 1.1v5.5h-1.4V68Zm20.1-6.7-1.2.3-.3-.6a1 1 0 0 0-.6-.5l-1-.2c-.5 0-1 .1-1.3.4-.4.2-.5.6-.5.9 0 .3.1.6.4.8.2.2.6.4 1.1.5l1.3.3c.8.2 1.4.5 1.7.9.4.4.6.9.6 1.5 0 .5-.1.9-.4 1.3-.3.4-.7.7-1.2.9-.5.2-1.1.3-1.8.3-.9 0-1.6-.2-2.2-.6-.6-.4-1-1-1.1-1.7l1.3-.3c.1.5.4.8.7 1.1.3.2.8.4 1.3.4.6 0 1.1-.1 1.5-.4.4-.3.6-.6.6-1 0-.3-.1-.6-.3-.8-.2-.2-.5-.4-1-.5l-1.5-.3c-.8-.2-1.4-.5-1.8-.9a2 2 0 0 1-.6-1.5c0-.5.1-.9.4-1.3.3-.4.7-.7 1.1-.9.5-.2 1-.3 1.6-.3a3 3 0 0 1 2 .6c.7.4 1 .9 1.2 1.6Zm6-2v1.1h-4.5v-1.1h4.5Zm-3.2-2.1h1.3v8.3l.2.9.4.4.6.1h.6l.3 1.2-.4.1-.6.1-1.1-.2c-.4-.2-.7-.4-.9-.7-.2-.3-.4-.8-.4-1.3v-8.9Zm8.8 11a4 4 0 0 1-2.2-.6c-.6-.4-1.1-.9-1.4-1.6a6 6 0 0 1 0-4.8c.3-.7.8-1.2 1.4-1.6.6-.4 1.3-.6 2.1-.6l1.3.2 1.2.7c.4.3.7.8.9 1.3.2.6.3 1.2.3 2.1v.6h-6.7v-1.2h5.4c0-.5-.1-.9-.3-1.3-.2-.4-.5-.7-.8-.9-.4-.2-.8-.3-1.3-.3s-1 .1-1.4.4c-.4.3-.7.6-.9 1-.2.4-.3.9-.3 1.4v.8c0 .7.1 1.2.3 1.7.2.5.6.8 1 1 .4.2.9.4 1.4.4l1-.1.7-.5.5-.8 1.3.4c-.1.4-.4.8-.7 1.2-.3.3-.7.6-1.2.8-.5.2-1 .3-1.6.3Zm5.6-.2v-8.7h1.3v1.3h.1c.2-.4.4-.8.9-1.1.4-.3.9-.4 1.4-.4h.7v1.4l-.3-.1h-.5a2 2 0 0 0-1.1.3l-.8.7a2 2 0 0 0-.3 1.1V68h-1.4Zm9 .2a3 3 0 0 1-1.9-.6c-.6-.4-1-.9-1.3-1.6a6 6 0 0 1 0-4.8c.3-.7.8-1.2 1.3-1.6.6-.4 1.2-.6 1.9-.6.6 0 1 .1 1.3.3l.8.6.4.6h.1v-4.3h1.3v11.6h-1.3v-1.1h-.2a2 2 0 0 1-.4.6c-.2.2-.4.5-.8.6-.2.2-.6.3-1.2.3Zm.2-1.2c.5 0 1-.1 1.4-.4.4-.3.7-.7.8-1.2.2-.5.3-1.1.3-1.7 0-.7-.1-1.2-.3-1.7-.2-.5-.5-.9-.8-1.1-.4-.3-.8-.4-1.4-.4a2.1 2.1 0 0 0-2.2 1.6c-.2.5-.3 1-.3 1.7 0 .6.1 1.2.3 1.7.2.5.5.9.9 1.2.3.2.7.3 1.3.3Zm9 1.2c-.6 0-1.1-.1-1.5-.3a2.4 2.4 0 0 1-1.5-2.4c0-.5.1-.9.3-1.2.2-.3.5-.6.8-.7l1.1-.4 1.2-.2 1.3-.2.7-.2c.2-.1.2-.2.2-.5 0-.6-.2-1-.5-1.3a2 2 0 0 0-1.4-.5c-.6 0-1.1.1-1.5.4l-.8.9-1.3-.5c.2-.5.5-.9.9-1.2l1.2-.6 1.3-.2 1 .1 1.1.4.9.9c.2.4.3 1 .3 1.7v5.7h-1.3v-1.2h.1c-.1.2-.2.4-.5.6l-.8.6c-.3.3-.8.3-1.3.3Zm.2-1.2c.5 0 1-.1 1.3-.3.4-.2.6-.5.8-.8.2-.3.3-.7.3-1v-1.2l-.4.2-.7.1-.7.1-.6.1-1 .2-.7.4c-.2.2-.3.5-.3.8 0 .5.2.8.5 1.1l1.5.3Zm6.3 1v-8.7h1.3v1.4h.1a2.4 2.4 0 0 1 2.4-1.5c.6 0 1.1.1 1.4.4.4.3.7.6.9 1.1h.1a2.7 2.7 0 0 1 2.6-1.5c.8 0 1.4.2 1.9.7.5.5.7 1.2.7 2.3V68H250v-5.8a2 2 0 0 0-.5-1.4c-.3-.3-.8-.4-1.2-.4-.6 0-1.1.2-1.4.6-.3.4-.5.8-.5 1.4v5.7H245v-6c0-.5-.2-.9-.5-1.2-.3-.3-.7-.5-1.2-.5a2 2 0 0 0-1.7 1.1 2 2 0 0 0-.3 1.1v5.5h-1.4V68Z" />
    <path fill="#ED6A42"
      d="M129.1 55.3v-4.8a8.5 8.5 0 0 1-3.4-1.2c-.5-.3-.9-.7-1.2-1.2a3 3 0 0 1-.4-1.7c0-.8.2-1.4.7-2a4 4 0 0 1 1.9-1.4c.8-.3 1.6-.5 2.5-.6v-4.6c-1.8.1-3.5.4-5.2 1.1-1.7.8-3 1.8-4 3.1a7.5 7.5 0 0 0-1.5 4.7c0 2.2.7 3.9 2.2 5.2 2.4 2.3 5.4 2.9 8.4 3.4Zm2.5-12.9a8 8 0 0 1 4 1.1c1 .7 1.6 1.7 1.8 3h5.3c0-1.7-.5-3.2-1.4-4.5a9.8 9.8 0 0 0-3.8-3.1l-1.5-.6c-1.4-.4-2.8-.6-4.2-.6v4.7h-.2Zm-2.5 22a14 14 0 0 1-2.8-.6c-.9-.3-1.7-.9-2.2-1.6-.6-.7-.9-1.6-1-2.6h-5.4a8.8 8.8 0 0 0 5.7 8.3c1.8.8 3.8 1 5.8 1.1v-4.6h-.1Zm13.2-7.8c-.5-1-1.2-1.8-2-2.5-2-1.6-4.5-2.4-7-3l-1.7-.3v4.9h.1c2.2.4 5.8 1.4 5.8 4.2 0 .9-.3 1.6-.8 2.3-1.1 1.5-3 1.9-4.8 2.1h-.4v4.8c2.1-.1 4.2-.4 6.1-1.2a8.4 8.4 0 0 0 5.3-7.9c.1-1.2-.1-2.4-.6-3.4Zm-71.7-.4 13.9-.1v-4.9l-13.9.1v4.9Zm0-13.2h15.8v-5H70.6v5Zm-7.4 26.1h5V38h-5v31.1ZM98 64.3v4.9l16.3-.1v-4.9l-16.3.1Zm0-8.1 13.9-.1v-4.9H98v5ZM98 43h15.8v-5H98v5Zm-7.4 26.1h5V38h-5v31.1Zm-49.8-6.2H47l-2-6.2h-2.1l-2.1 6.2Zm-12.6 6.3h5.7l8.5-22.3-2.7-6.7-11.5 29Zm13-31.2 12.5 31.1h5.7L46.7 38h-5.5ZM26.1 58.4v.9c0 4.9-3.8 9.8-12 9.8C5 69.1.9 63.6.9 55.6v-.5h5.2l.1 1c.3 5.7 2.6 8.6 7.9 8.6 5.1 0 7-3.2 7-5.4v-.9h5Zm0-9.7v-.9c0-5-3.4-9.9-12-9.9C5 37.9.9 43.4.9 51.4v.5h5.2l.1-1c.3-5.7 2.6-8.6 7.9-8.6 5.1 0 7 3.2 7 5.4v1h5Z" />
    <path fill="#fff"
      d="M39.3 5.9H55v-5H39.3v5ZM14.9 21.6l3.8 10.6H24l-3.8-10.6h-5.3ZM8.9 1H17c4.6 0 10.7.9 10.7 9.7 0 8.1-5.8 9.1-10.7 9.1H8.9V15l8.3-.1c5-.1 5.3-2.3 5.3-4.3s-.3-4.8-5.3-4.8H8.9V1ZM70 1h8c4.6 0 10.7.9 10.7 9.7 0 8-5.8 9-10.7 9h-8v-4.8l8.3-.1c4.9-.1 5.3-2.3 5.3-4.3s-.4-4.8-5.3-4.8H70V1ZM1.4 32.2h5V1h-5v31.2Zm147-10.6 3.8 10.6h5.3l-3.8-10.6h-5.3ZM142.3 1h8.1c4.6 0 10.7.9 10.7 9.7 0 8.1-5.8 9.1-10.7 9.1h-8.1V15l8.3-.1c4.9-.1 5.3-2.3 5.3-4.3s-.4-4.8-5.3-4.8h-8.3V1Zm-7.5 31.2h5V1h-5v31.2Zm-72.3 0h5V1h-5v31.2Zm-22.4-5v4.9l16.2-.1v-4.9l-16.2.1Zm0-8.1 13.8-.1v-4.9l-13.8.1v4.9Zm-7.6 13h5V.9h-5v31.2Zm67.5-6.2h6.2l-2-6.2h-2.1l-2.1 6.2Zm-12.6 6.3h5.7l8.5-22.3-2.7-6.6-11.5 28.9Zm13-31.2L113 32.2h5.7L105.9 1h-5.5Zm23.2 31.2h5V1h-5v31.2Z" />
  </g>
  <defs>
    <clipPath id="a">
      <path fill="#fff" d="M0 0h252v70H0z" />
    </clipPath>
  </defs>
</svg>
